<svg xmlns="http://www.w3.org/2000/svg" xmlns:xlink="http://www.w3.org/1999/xlink" width="150" zoomAndPan="magnify" viewBox="0 0 112.5 36.000001" height="48" preserveAspectRatio="xMidYMid meet" version="1.0"><defs><clipPath id="id1"><path d="M 7 0.539062 L 105.777344 0.539062 L 105.777344 34.992188 L 7 34.992188 Z M 7 0.539062 " clip-rule="nonzero"/></clipPath></defs><g clip-path="url(#id1)"><path fill="#8a9999" d="M 16.945312 27.828125 C 18.273438 27.828125 19.542969 27.796875 20.699219 27.742188 C 21.71875 29.542969 23.636719 30.753906 25.835938 30.753906 C 27.050781 30.753906 28.175781 30.386719 29.117188 29.753906 C 29.429688 32.558594 31.789062 34.734375 34.652344 34.734375 C 37.351562 34.734375 39.601562 32.800781 40.113281 30.230469 C 41.035156 30.910156 42.171875 31.3125 43.398438 31.3125 C 44.714844 31.3125 45.925781 30.847656 46.882812 30.074219 C 47.234375 32.84375 49.578125 34.988281 52.421875 34.988281 C 55.152344 34.988281 57.421875 33.007812 57.910156 30.398438 C 58.609375 30.714844 59.382812 30.894531 60.199219 30.894531 C 62.832031 30.894531 65.035156 29.058594 65.628906 26.585938 C 66.179688 26.707031 66.75 26.773438 67.332031 26.773438 C 68.671875 26.773438 69.933594 26.4375 71.042969 25.847656 C 71.644531 26.574219 72.546875 27.035156 73.554688 27.035156 C 73.601562 27.035156 73.644531 27.035156 73.691406 27.03125 C 73.949219 28.4375 75.171875 29.5 76.636719 29.5 C 77.539062 29.5 78.347656 29.097656 78.898438 28.464844 C 79.832031 29.988281 81.5 31.003906 83.40625 31.003906 C 85.707031 31.003906 87.664062 29.523438 88.394531 27.453125 C 90.019531 27.664062 92.289062 27.800781 94.828125 27.824219 C 95.328125 29.046875 96.515625 29.90625 97.902344 29.90625 C 99.359375 29.90625 100.597656 28.957031 101.046875 27.640625 C 103.738281 27.4375 105.519531 27.078125 105.519531 26.675781 C 105.519531 26.273438 103.773438 25.917969 101.125 25.710938 C 100.757812 24.265625 99.453125 23.195312 97.90625 23.195312 C 97.640625 23.195312 97.386719 23.226562 97.140625 23.285156 C 96.984375 22.289062 96.3125 21.464844 95.40625 21.105469 C 95.34375 20.164062 95.023438 19.289062 94.519531 18.558594 C 93.609375 17.246094 92.101562 16.386719 90.394531 16.386719 C 87.617188 16.386719 85.363281 18.65625 85.363281 21.460938 C 85.363281 22.105469 85.484375 22.722656 85.703125 23.289062 C 85.152344 22.496094 84.824219 21.535156 84.800781 20.5 C 84.355469 20.378906 83.890625 20.3125 83.40625 20.3125 C 83.191406 20.3125 82.976562 20.324219 82.769531 20.351562 C 82.730469 17.402344 80.351562 15.019531 77.417969 15.019531 C 76.757812 15.019531 76.128906 15.140625 75.542969 15.363281 C 75.667969 15.925781 75.734375 16.507812 75.734375 17.109375 C 75.734375 18.101562 75.554688 19.054688 75.230469 19.933594 C 75.289062 19.535156 75.320312 19.125 75.320312 18.710938 C 75.320312 14.257812 71.746094 10.648438 67.332031 10.648438 C 63.90625 10.648438 60.984375 12.828125 59.851562 15.886719 C 60.21875 13.457031 61.660156 11.382812 63.671875 10.175781 C 63.472656 9.476562 63.21875 8.796875 62.914062 8.148438 C 60.804688 3.652344 56.269531 0.539062 51.011719 0.539062 C 43.921875 0.539062 38.140625 6.203125 37.863281 13.292969 C 37.789062 12.726562 37.75 12.148438 37.75 11.5625 C 37.75 9.6875 38.144531 7.90625 38.855469 6.296875 C 38.34375 5.96875 37.734375 5.777344 37.078125 5.777344 C 35.25 5.777344 33.769531 7.273438 33.769531 9.117188 C 33.769531 9.535156 33.847656 9.9375 33.984375 10.304688 C 29.867188 10.949219 26.714844 14.539062 26.707031 18.871094 C 26.421875 18.832031 26.132812 18.808594 25.835938 18.808594 C 25.324219 18.808594 24.824219 18.875 24.351562 18.996094 C 24.148438 17.460938 23.09375 16.195312 21.675781 15.710938 C 21.273438 15.570312 20.839844 15.492188 20.386719 15.492188 C 18.175781 15.492188 16.386719 17.300781 16.386719 19.53125 C 16.386719 20.894531 17.058594 22.101562 18.082031 22.832031 C 16.953125 22.441406 16.050781 21.558594 15.628906 20.4375 C 14.566406 21.058594 13.847656 22.222656 13.847656 23.554688 C 13.847656 24.296875 14.070312 24.984375 14.449219 25.554688 C 10.214844 25.6875 7.089844 26.136719 7.089844 26.675781 C 7.089844 27.3125 11.5 27.828125 16.945312 27.828125 Z M 16.945312 27.828125 " fill-opacity="1" fill-rule="nonzero"/></g><path fill="#8a9999" d="M 12.800781 23.152344 C 12.800781 23.328125 12.765625 23.5 12.699219 23.664062 C 12.632812 23.828125 12.535156 23.972656 12.410156 24.097656 C 12.289062 24.222656 12.144531 24.320312 11.980469 24.386719 C 11.820312 24.453125 11.652344 24.488281 11.476562 24.488281 C 11.300781 24.488281 11.128906 24.453125 10.96875 24.386719 C 10.804688 24.320312 10.664062 24.222656 10.539062 24.097656 C 10.414062 23.972656 10.320312 23.828125 10.25 23.664062 C 10.183594 23.5 10.152344 23.328125 10.152344 23.152344 C 10.152344 22.972656 10.183594 22.804688 10.25 22.640625 C 10.320312 22.476562 10.414062 22.332031 10.539062 22.207031 C 10.664062 22.082031 10.804688 21.984375 10.96875 21.917969 C 11.128906 21.847656 11.300781 21.816406 11.476562 21.816406 C 11.652344 21.816406 11.820312 21.847656 11.980469 21.917969 C 12.144531 21.984375 12.289062 22.082031 12.410156 22.207031 C 12.535156 22.332031 12.632812 22.476562 12.699219 22.640625 C 12.765625 22.804688 12.800781 22.972656 12.800781 23.152344 Z M 12.800781 23.152344 " fill-opacity="1" fill-rule="nonzero"/><path fill="#8a9999" d="M 14.21875 19.710938 C 14.21875 19.945312 14.136719 20.148438 13.972656 20.3125 C 13.808594 20.480469 13.613281 20.5625 13.378906 20.5625 C 13.148438 20.5625 12.949219 20.480469 12.785156 20.3125 C 12.621094 20.148438 12.539062 19.945312 12.539062 19.710938 C 12.539062 19.476562 12.621094 19.277344 12.785156 19.113281 C 12.949219 18.945312 13.148438 18.863281 13.378906 18.863281 C 13.613281 18.863281 13.808594 18.945312 13.972656 19.113281 C 14.136719 19.277344 14.21875 19.476562 14.21875 19.710938 Z M 14.21875 19.710938 " fill-opacity="1" fill-rule="nonzero"/><path fill="#8a9999" d="M 78.550781 13.222656 C 78.550781 13.460938 78.46875 13.660156 78.300781 13.824219 C 78.136719 13.992188 77.941406 14.074219 77.707031 14.074219 C 77.476562 14.074219 77.277344 13.992188 77.113281 13.824219 C 76.949219 13.660156 76.867188 13.460938 76.867188 13.222656 C 76.867188 12.988281 76.949219 12.789062 77.113281 12.625 C 77.277344 12.457031 77.476562 12.375 77.707031 12.375 C 77.941406 12.375 78.136719 12.457031 78.300781 12.625 C 78.46875 12.789062 78.550781 12.988281 78.550781 13.222656 Z M 78.550781 13.222656 " fill-opacity="1" fill-rule="nonzero"/><path fill="#8a9999" d="M 32.679688 9.160156 C 32.679688 9.394531 32.597656 9.59375 32.433594 9.757812 C 32.269531 9.925781 32.070312 10.007812 31.835938 10.007812 C 31.605469 10.007812 31.40625 9.925781 31.242188 9.757812 C 31.078125 9.59375 30.996094 9.394531 30.996094 9.160156 C 30.996094 8.925781 31.078125 8.722656 31.242188 8.558594 C 31.40625 8.394531 31.605469 8.308594 31.835938 8.308594 C 32.070312 8.308594 32.269531 8.394531 32.433594 8.558594 C 32.597656 8.722656 32.679688 8.925781 32.679688 9.160156 Z M 32.679688 9.160156 " fill-opacity="1" fill-rule="nonzero"/></svg>