<svg xmlns="http://www.w3.org/2000/svg" xmlns:xlink="http://www.w3.org/1999/xlink" width="200" zoomAndPan="magnify" viewBox="0 0 150 77.249999" height="103" preserveAspectRatio="xMidYMid meet" version="1.0"><defs><g/></defs><g fill="#4ab19a" fill-opacity="1"><g transform="translate(0.728927, 52.430082)"><g><path d="M 37 -19.84375 C 36.726562 -14.300781 35.363281 -9.648438 32.90625 -5.890625 C 30.21875 -1.828125 26.4375 0.863281 21.5625 2.1875 C 19.175781 2.851562 16.628906 3.1875 13.921875 3.1875 C 10.628906 3.1875 7.765625 2.679688 5.328125 1.671875 C 1.984375 0.265625 0.3125 -1.867188 0.3125 -4.734375 C 0.3125 -7.253906 1.585938 -9.492188 4.140625 -11.453125 C 6.578125 -13.304688 9.332031 -14.300781 12.40625 -14.4375 C 14.375 -14.519531 16.25 -14.203125 18.03125 -13.484375 C 19.820312 -12.765625 21.128906 -11.820312 21.953125 -10.65625 C 22.085938 -10.445312 22.144531 -10.222656 22.125 -9.984375 C 22.0625 -9.742188 21.953125 -9.597656 21.796875 -9.546875 C 21.535156 -9.441406 21.242188 -9.628906 20.921875 -10.109375 C 20.265625 -11.109375 19.085938 -11.929688 17.390625 -12.578125 C 15.691406 -13.234375 13.953125 -13.507812 12.171875 -13.40625 C 9.648438 -13.269531 7.359375 -12.445312 5.296875 -10.9375 C 3.117188 -9.34375 2.03125 -7.566406 2.03125 -5.609375 C 2.03125 -5.179688 2.082031 -4.769531 2.1875 -4.375 C 2.664062 -2.570312 3.96875 -1.21875 6.09375 -0.3125 C 7.945312 0.445312 10.28125 0.828125 13.09375 0.828125 C 14.570312 0.828125 16.082031 0.722656 17.625 0.515625 C 22.664062 -0.222656 26.796875 -2.398438 30.015625 -6.015625 C 33.234375 -9.640625 35.132812 -14.171875 35.71875 -19.609375 C 35.820312 -20.515625 35.875 -21.441406 35.875 -22.390625 C 35.875 -24.835938 35.570312 -26.851562 34.96875 -28.4375 C 34.25 -30.375 33.1875 -31.34375 31.78125 -31.34375 C 30.320312 -31.34375 29.179688 -30.414062 28.359375 -28.5625 C 27.617188 -26.914062 27.300781 -25.0625 27.40625 -23 C 27.507812 -21.1875 27.945312 -19.445312 28.71875 -17.78125 C 29.488281 -16.113281 30.414062 -14.84375 31.5 -13.96875 C 31.632812 -13.882812 31.675781 -13.765625 31.625 -13.609375 C 31.46875 -13.234375 31.203125 -13.191406 30.828125 -13.484375 C 29.367188 -14.648438 28.242188 -16.253906 27.453125 -18.296875 C 26.734375 -20.148438 26.375 -22.097656 26.375 -24.140625 C 26.375 -26.503906 26.8125 -28.484375 27.6875 -30.078125 C 28.664062 -31.929688 30.097656 -32.859375 31.984375 -32.859375 C 33.921875 -32.859375 35.328125 -31.382812 36.203125 -28.4375 C 36.890625 -26.050781 37.15625 -23.1875 37 -19.84375 Z M 37 -19.84375 "/></g></g></g><g fill="#4ab19a" fill-opacity="1"><g transform="translate(39.823176, 52.430082)"><g><path d="M 5.375 -30.078125 C 5.5 -29.035156 5.257812 -27.90625 4.65625 -26.6875 C 4.414062 -26.21875 4.070312 -25.804688 3.625 -25.453125 L 3.34375 -25.78125 C 3.53125 -25.914062 3.804688 -26.328125 4.171875 -27.015625 C 4.335938 -27.429688 4.378906 -27.878906 4.296875 -28.359375 C 3.554688 -28.359375 3.1875 -28.929688 3.1875 -30.078125 C 3.1875 -31.191406 3.554688 -31.75 4.296875 -31.75 C 4.847656 -31.75 5.207031 -31.191406 5.375 -30.078125 Z M 5.375 -30.078125 "/></g></g></g><g fill="#4ab19a" fill-opacity="1"><g transform="translate(46.862528, 52.430082)"><g><path d="M 21.953125 -5.5625 C 21.710938 -4.875 21.144531 -3.722656 20.25 -2.109375 C 18.8125 -0.117188 17.328125 0.875 15.796875 0.875 C 13.878906 0.875 12.882812 -1.21875 12.8125 -5.40625 C 12.757812 -7.875 13.078125 -10.4375 13.765625 -13.09375 C 13.285156 -12.394531 12.453125 -10.722656 11.265625 -8.078125 C 10.273438 -5.503906 9.503906 -2.769531 8.953125 0.125 C 8.921875 0.363281 8.734375 0.46875 8.390625 0.4375 C 8.023438 0.40625 7.65625 0.242188 7.28125 -0.046875 C 6.90625 -0.335938 6.734375 -0.65625 6.765625 -1 C 6.816406 -1.976562 6.921875 -3.726562 7.078125 -6.25 C 7.160156 -7.28125 7.398438 -9.253906 7.796875 -12.171875 L 5.484375 -7.671875 C 4.742188 -6.242188 3.859375 -3.910156 2.828125 -0.671875 C 2.773438 -0.410156 2.640625 -0.117188 2.421875 0.203125 C 2.347656 0.222656 1.960938 0.0078125 1.265625 -0.4375 C 0.335938 -1.050781 -0.0390625 -1.765625 0.125 -2.578125 C 0.125 -2.609375 0.1875 -3.710938 0.3125 -5.890625 C 0.394531 -7.554688 0.6875 -9.546875 1.1875 -11.859375 C 1.644531 -13.972656 1.992188 -15.175781 2.234375 -15.46875 C 2.304688 -15.582031 2.460938 -15.640625 2.703125 -15.640625 C 3.285156 -15.640625 3.695312 -15.382812 3.9375 -14.875 C 3.988281 -14.738281 3.816406 -13.546875 3.421875 -11.296875 C 2.941406 -8.671875 2.703125 -6.585938 2.703125 -5.046875 C 2.734375 -4.835938 2.773438 -4.226562 2.828125 -3.21875 C 3.191406 -4.226562 3.84375 -5.820312 4.78125 -8 C 6.894531 -12.289062 8.175781 -14.476562 8.625 -14.5625 C 8.914062 -14.613281 9.222656 -14.546875 9.546875 -14.359375 C 9.992188 -14.148438 10.3125 -13.816406 10.5 -13.359375 C 10.5 -13.335938 10.445312 -13.085938 10.34375 -12.609375 C 10.15625 -11.816406 9.863281 -9.535156 9.46875 -5.765625 L 9.390625 -5.09375 C 9.765625 -6.175781 10.148438 -7.273438 10.546875 -8.390625 C 11.148438 -9.929688 11.945312 -11.601562 12.9375 -13.40625 C 13.9375 -15.207031 14.582031 -16.125 14.875 -16.15625 C 15.21875 -16.226562 15.632812 -16.113281 16.125 -15.8125 C 16.625 -15.507812 16.9375 -15.195312 17.0625 -14.875 C 17.144531 -14.6875 17.09375 -14.4375 16.90625 -14.125 C 16.113281 -12.613281 15.398438 -10.488281 14.765625 -7.75 C 14.492188 -6.664062 14.359375 -5.472656 14.359375 -4.171875 C 14.359375 -2.023438 14.71875 -0.796875 15.4375 -0.484375 C 15.644531 -0.398438 15.882812 -0.359375 16.15625 -0.359375 C 17.425781 -0.359375 18.617188 -1.191406 19.734375 -2.859375 C 20.390625 -3.847656 20.878906 -4.832031 21.203125 -5.8125 Z M 21.953125 -5.5625 "/></g></g></g><g fill="#4ab19a" fill-opacity="1"><g transform="translate(67.543109, 52.430082)"><g/></g></g><g fill="#4ab19a" fill-opacity="1"><g transform="translate(77.087991, 52.430082)"><g><path d="M 37 -19.453125 C 36.675781 -13.640625 35.203125 -8.160156 32.578125 -3.015625 C 29.609375 2.765625 25.859375 6.59375 21.328125 8.46875 C 19.097656 9.394531 16.628906 9.859375 13.921875 9.859375 C 10.554688 9.859375 7.597656 9.195312 5.046875 7.875 C 2.316406 6.46875 0.765625 4.640625 0.390625 2.390625 C 0.316406 2.015625 0.28125 1.628906 0.28125 1.234375 C 0.28125 -1.335938 1.578125 -3.59375 4.171875 -5.53125 C 6.671875 -7.363281 9.457031 -8.316406 12.53125 -8.390625 C 14.488281 -8.421875 16.359375 -8.050781 18.140625 -7.28125 C 19.835938 -6.539062 21.109375 -5.597656 21.953125 -4.453125 C 22.085938 -4.242188 22.144531 -4.003906 22.125 -3.734375 C 22.0625 -3.492188 21.953125 -3.347656 21.796875 -3.296875 C 21.535156 -3.222656 21.242188 -3.410156 20.921875 -3.859375 C 20.234375 -4.890625 19.109375 -5.742188 17.546875 -6.421875 C 15.984375 -7.097656 14.335938 -7.425781 12.609375 -7.40625 C 9.953125 -7.34375 7.539062 -6.546875 5.375 -5.015625 C 3.113281 -3.421875 1.984375 -1.601562 1.984375 0.4375 C 1.984375 0.914062 2.050781 1.394531 2.1875 1.875 C 2.738281 3.675781 3.984375 5.09375 5.921875 6.125 C 7.753906 7.082031 9.90625 7.5625 12.375 7.5625 C 14.09375 7.5625 15.765625 7.304688 17.390625 6.796875 C 22.953125 5.023438 27.507812 1.195312 31.0625 -4.6875 C 34.351562 -10.175781 36 -16 36 -22.15625 C 36 -25.894531 35.640625 -28.484375 34.921875 -29.921875 C 34.316406 -27.296875 33.097656 -24.519531 31.265625 -21.59375 C 30.492188 -20.507812 29.722656 -19.410156 28.953125 -18.296875 C 28.109375 -16.992188 27.6875 -15.921875 27.6875 -15.078125 C 27.6875 -14.703125 27.765625 -14.34375 27.921875 -14 C 28.296875 -13.257812 28.828125 -12.769531 29.515625 -12.53125 C 29.835938 -12.425781 30.460938 -12.359375 31.390625 -12.328125 C 31.734375 -12.304688 31.929688 -12.203125 31.984375 -12.015625 C 32.015625 -11.773438 31.882812 -11.585938 31.59375 -11.453125 C 30.820312 -11.085938 29.941406 -10.90625 28.953125 -10.90625 C 27.179688 -10.90625 25.988281 -11.59375 25.375 -12.96875 C 25.21875 -13.34375 25.140625 -13.726562 25.140625 -14.125 C 25.140625 -15.132812 25.765625 -16.394531 27.015625 -17.90625 C 29.109375 -20.445312 30.195312 -21.769531 30.28125 -21.875 C 31.738281 -24.101562 32.863281 -26.453125 33.65625 -28.921875 C 33.96875 -30.003906 34.285156 -31.078125 34.609375 -32.140625 C 34.765625 -32.296875 35.003906 -32.375 35.328125 -32.375 C 35.910156 -32.375 36.375 -32.195312 36.71875 -31.84375 C 37.0625 -31.488281 37.234375 -29.769531 37.234375 -26.6875 C 37.234375 -24.644531 37.15625 -22.234375 37 -19.453125 Z M 37 -19.453125 "/></g></g></g><g fill="#4ab19a" fill-opacity="1"><g transform="translate(114.869816, 52.430082)"><g><path d="M 15.984375 -5.5625 C 15.753906 -4.875 15.1875 -3.722656 14.28125 -2.109375 C 12.875 -0.148438 11.535156 0.828125 10.265625 0.828125 C 9.203125 0.828125 8.421875 0.0859375 7.921875 -1.390625 C 6.671875 -0.140625 5.382812 0.453125 4.0625 0.390625 C 2.96875 0.367188 2.007812 -0.21875 1.1875 -1.375 C 0.363281 -2.53125 -0.046875 -4.046875 -0.046875 -5.921875 C -0.046875 -6.554688 0.0078125 -7.207031 0.125 -7.875 C 0.488281 -10.1875 1.414062 -12.160156 2.90625 -13.796875 C 4.28125 -15.316406 5.660156 -16.101562 7.046875 -16.15625 C 7.941406 -16.207031 8.65625 -16.003906 9.1875 -15.546875 C 9.632812 -15.203125 9.875 -14.765625 9.90625 -14.234375 C 9.90625 -14.003906 9.863281 -13.820312 9.78125 -13.6875 C 9.707031 -13.550781 9.601562 -13.507812 9.46875 -13.5625 C 9.332031 -13.644531 9.253906 -13.804688 9.234375 -14.046875 C 9.148438 -14.816406 8.628906 -15.203125 7.671875 -15.203125 C 6.347656 -15.203125 5.117188 -14.164062 3.984375 -12.09375 C 3.078125 -10.445312 2.519531 -8.851562 2.3125 -7.3125 C 2.226562 -6.570312 2.1875 -5.882812 2.1875 -5.25 C 2.1875 -2.226562 2.929688 -0.71875 4.421875 -0.71875 C 5.453125 -0.71875 6.5625 -1.113281 7.75 -1.90625 C 7.488281 -2.832031 7.289062 -3.972656 7.15625 -5.328125 C 7.082031 -6.390625 7.097656 -7.691406 7.203125 -9.234375 C 7.335938 -10.953125 7.585938 -12.238281 7.953125 -13.09375 C 8.085938 -13.40625 8.25 -13.5625 8.4375 -13.5625 C 8.988281 -13.5625 9.519531 -13.242188 10.03125 -12.609375 C 10.34375 -12.210938 10.429688 -11.84375 10.296875 -11.5 C 10.066406 -10.78125 9.832031 -9.664062 9.59375 -8.15625 C 9.320312 -6.457031 9.1875 -4.972656 9.1875 -3.703125 C 9.1875 -1.972656 9.453125 -0.960938 9.984375 -0.671875 C 10.191406 -0.546875 10.429688 -0.484375 10.703125 -0.484375 C 11.597656 -0.484375 12.539062 -1.15625 13.53125 -2.5 C 14.21875 -3.507812 14.785156 -4.613281 15.234375 -5.8125 Z M 15.984375 -5.5625 "/></g></g></g><g fill="#4ab19a" fill-opacity="1"><g transform="translate(129.624602, 52.430082)"><g><path d="M 11.265625 5.015625 C 11.078125 6.179688 10.398438 7.09375 9.234375 7.75 C 8.171875 8.363281 6.832031 8.671875 5.21875 8.671875 C 3.644531 8.671875 2.34375 8.378906 1.3125 7.796875 C 0.195312 7.179688 -0.359375 6.375 -0.359375 5.375 C -0.359375 4.445312 0.0507812 3.609375 0.875 2.859375 C 1.457031 2.328125 1.988281 2 2.46875 1.875 C 2.519531 1.84375 2.625 1.878906 2.78125 1.984375 C 3.289062 2.304688 3.675781 2.742188 3.9375 3.296875 C 3.988281 3.429688 4.015625 3.539062 4.015625 3.625 C 4.015625 3.675781 3.976562 3.703125 3.90625 3.703125 C 3.207031 3.703125 2.539062 3.832031 1.90625 4.09375 C 1.164062 4.4375 0.796875 4.875 0.796875 5.40625 C 0.796875 5.914062 1.085938 6.40625 1.671875 6.875 C 2.460938 7.488281 3.613281 7.796875 5.125 7.796875 C 7.863281 7.796875 9.3125 6.828125 9.46875 4.890625 C 9.488281 4.441406 9.382812 3.882812 9.15625 3.21875 C 8.675781 2.101562 8.394531 1.398438 8.3125 1.109375 C 8.070312 0.316406 7.796875 -1.21875 7.484375 -3.5 C 7.023438 -2.519531 6.347656 -1.59375 5.453125 -0.71875 C 4.390625 0.34375 3.429688 0.847656 2.578125 0.796875 C 1.359375 0.691406 0.644531 -1.363281 0.4375 -5.375 C 0.351562 -6.59375 0.40625 -8.445312 0.59375 -10.9375 C 0.832031 -13.800781 1.140625 -15.550781 1.515625 -16.1875 C 1.617188 -16.375 1.910156 -16.390625 2.390625 -16.234375 C 3.179688 -15.960938 3.6875 -15.5625 3.90625 -15.03125 C 3.976562 -14.851562 3.9375 -14.601562 3.78125 -14.28125 C 3.164062 -13.113281 2.617188 -10.953125 2.140625 -7.796875 C 2.015625 -6.921875 1.953125 -5.941406 1.953125 -4.859375 C 1.953125 -2.304688 2.242188 -0.910156 2.828125 -0.671875 C 2.984375 -0.617188 3.140625 -0.59375 3.296875 -0.59375 C 3.960938 -0.59375 4.691406 -1.097656 5.484375 -2.109375 C 6.148438 -2.984375 6.65625 -3.898438 7 -4.859375 C 7.132812 -5.203125 7.359375 -7.132812 7.671875 -10.65625 C 7.941406 -13.6875 8.316406 -15.203125 8.796875 -15.203125 C 9.378906 -15.203125 9.910156 -14.878906 10.390625 -14.234375 C 10.703125 -13.816406 10.804688 -13.445312 10.703125 -13.125 C 10.117188 -11.476562 9.707031 -9.304688 9.46875 -6.609375 C 9.175781 -3.523438 9.320312 -1.109375 9.90625 0.640625 C 10.226562 1.410156 10.550781 2.191406 10.875 2.984375 C 11.207031 3.773438 11.335938 4.453125 11.265625 5.015625 Z M 11.265625 5.015625 "/></g></g></g><g fill="#4ab19a" fill-opacity="1"><g transform="translate(142.31134, 52.430082)"><g><path d="M 4.78125 -0.484375 C 4.78125 0.660156 4.421875 1.234375 3.703125 1.234375 C 2.984375 1.234375 2.625 0.660156 2.625 -0.484375 C 2.625 -1.585938 2.984375 -2.140625 3.703125 -2.140625 C 4.421875 -2.140625 4.78125 -1.585938 4.78125 -0.484375 Z M 4.78125 -0.484375 "/></g></g></g></svg>